<mxfile host="app.diagrams.net" agent="Mozilla/5.0 (Windows NT 10.0; Win64; x64) AppleWebKit/537.36 (KHTML, like Gecko) Chrome/129.0.0.0 Safari/537.36" version="24.7.7">
  <diagram name="第 1 页" id="Sipz-_kJV49elIH6eEbf">
    <mxGraphModel dx="880" dy="460" grid="1" gridSize="10" guides="1" tooltips="1" connect="1" arrows="1" fold="1" page="1" pageScale="1" pageWidth="827" pageHeight="1169" math="0" shadow="0">
      <root>
        <mxCell id="0" />
        <mxCell id="1" parent="0" />
        <mxCell id="w30AFk53KffUqU6aEnDT-2" value="攻击者" style="text;html=1;align=center;verticalAlign=middle;whiteSpace=wrap;rounded=0;" vertex="1" parent="1">
          <mxGeometry x="70" y="160" width="60" height="30" as="geometry" />
        </mxCell>
        <mxCell id="w30AFk53KffUqU6aEnDT-3" value="" style="endArrow=classic;html=1;rounded=0;" edge="1" parent="1">
          <mxGeometry width="50" height="50" relative="1" as="geometry">
            <mxPoint x="140" y="120" as="sourcePoint" />
            <mxPoint x="250" y="120" as="targetPoint" />
          </mxGeometry>
        </mxCell>
        <mxCell id="w30AFk53KffUqU6aEnDT-4" value="无法建立连接" style="text;html=1;align=center;verticalAlign=middle;whiteSpace=wrap;rounded=0;" vertex="1" parent="1">
          <mxGeometry x="140" y="70" width="80" height="30" as="geometry" />
        </mxCell>
        <mxCell id="w30AFk53KffUqU6aEnDT-5" value="" style="endArrow=none;html=1;rounded=0;" edge="1" parent="1">
          <mxGeometry width="50" height="50" relative="1" as="geometry">
            <mxPoint x="160" y="100" as="sourcePoint" />
            <mxPoint x="200" y="140" as="targetPoint" />
          </mxGeometry>
        </mxCell>
        <mxCell id="w30AFk53KffUqU6aEnDT-6" value="" style="endArrow=none;html=1;rounded=0;" edge="1" parent="1">
          <mxGeometry width="50" height="50" relative="1" as="geometry">
            <mxPoint x="200" y="100" as="sourcePoint" />
            <mxPoint x="160" y="140" as="targetPoint" />
          </mxGeometry>
        </mxCell>
        <mxCell id="w30AFk53KffUqU6aEnDT-7" value="" style="sketch=0;outlineConnect=0;fontColor=#232F3E;gradientColor=none;strokeColor=#232F3E;fillColor=#ffffff;dashed=0;verticalLabelPosition=bottom;verticalAlign=top;align=center;html=1;fontSize=12;fontStyle=0;aspect=fixed;shape=mxgraph.aws4.resourceIcon;resIcon=mxgraph.aws4.vpn_gateway;" vertex="1" parent="1">
          <mxGeometry x="260" y="90" width="60" height="60" as="geometry" />
        </mxCell>
        <mxCell id="w30AFk53KffUqU6aEnDT-8" value="SDP网关" style="text;html=1;align=center;verticalAlign=middle;whiteSpace=wrap;rounded=0;" vertex="1" parent="1">
          <mxGeometry x="260" y="160" width="60" height="30" as="geometry" />
        </mxCell>
        <mxCell id="w30AFk53KffUqU6aEnDT-9" value="" style="verticalLabelPosition=bottom;dashed=0;shadow=0;html=1;align=center;verticalAlign=top;shape=mxgraph.cabinets.surge_protection_3p;" vertex="1" parent="1">
          <mxGeometry x="380" y="60" width="50" height="90" as="geometry" />
        </mxCell>
        <mxCell id="w30AFk53KffUqU6aEnDT-10" value="业务系统" style="text;html=1;align=center;verticalAlign=middle;whiteSpace=wrap;rounded=0;" vertex="1" parent="1">
          <mxGeometry x="375" y="160" width="60" height="30" as="geometry" />
        </mxCell>
        <mxCell id="w30AFk53KffUqU6aEnDT-11" value="" style="endArrow=none;dashed=1;html=1;rounded=0;" edge="1" parent="1">
          <mxGeometry width="50" height="50" relative="1" as="geometry">
            <mxPoint x="10" y="210" as="sourcePoint" />
            <mxPoint x="480" y="210" as="targetPoint" />
          </mxGeometry>
        </mxCell>
        <mxCell id="w30AFk53KffUqU6aEnDT-12" value="" style="sketch=0;outlineConnect=0;fontColor=#232F3E;gradientColor=none;fillColor=#232F3D;strokeColor=none;dashed=0;verticalLabelPosition=bottom;verticalAlign=top;align=center;html=1;fontSize=12;fontStyle=0;aspect=fixed;pointerEvents=1;shape=mxgraph.aws4.authenticated_user;" vertex="1" parent="1">
          <mxGeometry x="80" y="310" width="50" height="50" as="geometry" />
        </mxCell>
        <mxCell id="w30AFk53KffUqU6aEnDT-13" value="SDP客户端" style="text;html=1;align=center;verticalAlign=middle;whiteSpace=wrap;rounded=0;" vertex="1" parent="1">
          <mxGeometry x="65" y="370" width="70" height="30" as="geometry" />
        </mxCell>
        <mxCell id="w30AFk53KffUqU6aEnDT-14" value="" style="endArrow=classic;html=1;rounded=0;" edge="1" parent="1">
          <mxGeometry width="50" height="50" relative="1" as="geometry">
            <mxPoint x="140" y="350" as="sourcePoint" />
            <mxPoint x="250" y="350" as="targetPoint" />
          </mxGeometry>
        </mxCell>
        <mxCell id="w30AFk53KffUqU6aEnDT-16" value="" style="html=1;labelBackgroundColor=#ffffff;startArrow=none;startFill=0;startSize=6;endArrow=classic;endFill=1;endSize=6;jettySize=auto;orthogonalLoop=1;strokeWidth=1;dashed=1;fontSize=14;rounded=0;" edge="1" parent="1">
          <mxGeometry width="60" height="60" relative="1" as="geometry">
            <mxPoint x="140" y="320" as="sourcePoint" />
            <mxPoint x="250" y="320" as="targetPoint" />
          </mxGeometry>
        </mxCell>
        <mxCell id="w30AFk53KffUqU6aEnDT-17" value="1. 敲门" style="text;html=1;align=center;verticalAlign=middle;whiteSpace=wrap;rounded=0;" vertex="1" parent="1">
          <mxGeometry x="150" y="280" width="80" height="30" as="geometry" />
        </mxCell>
        <mxCell id="w30AFk53KffUqU6aEnDT-18" value="3. 正常访问" style="text;html=1;align=center;verticalAlign=middle;whiteSpace=wrap;rounded=0;" vertex="1" parent="1">
          <mxGeometry x="150" y="350" width="80" height="30" as="geometry" />
        </mxCell>
        <mxCell id="w30AFk53KffUqU6aEnDT-19" value="" style="sketch=0;outlineConnect=0;fontColor=#232F3E;gradientColor=none;strokeColor=#232F3E;fillColor=#ffffff;dashed=0;verticalLabelPosition=bottom;verticalAlign=top;align=center;html=1;fontSize=12;fontStyle=0;aspect=fixed;shape=mxgraph.aws4.resourceIcon;resIcon=mxgraph.aws4.vpn_gateway;" vertex="1" parent="1">
          <mxGeometry x="260" y="305" width="60" height="60" as="geometry" />
        </mxCell>
        <mxCell id="w30AFk53KffUqU6aEnDT-20" value="SDP网关" style="text;html=1;align=center;verticalAlign=middle;whiteSpace=wrap;rounded=0;" vertex="1" parent="1">
          <mxGeometry x="260" y="370" width="60" height="30" as="geometry" />
        </mxCell>
        <mxCell id="w30AFk53KffUqU6aEnDT-21" value="" style="verticalLabelPosition=bottom;dashed=0;shadow=0;html=1;align=center;verticalAlign=top;shape=mxgraph.cabinets.surge_protection_3p;" vertex="1" parent="1">
          <mxGeometry x="380" y="270" width="50" height="90" as="geometry" />
        </mxCell>
        <mxCell id="w30AFk53KffUqU6aEnDT-22" value="业务系统" style="text;html=1;align=center;verticalAlign=middle;whiteSpace=wrap;rounded=0;" vertex="1" parent="1">
          <mxGeometry x="375" y="370" width="60" height="30" as="geometry" />
        </mxCell>
        <mxCell id="w30AFk53KffUqU6aEnDT-23" value="" style="endArrow=classic;html=1;rounded=0;" edge="1" parent="1">
          <mxGeometry width="50" height="50" relative="1" as="geometry">
            <mxPoint x="330" y="330" as="sourcePoint" />
            <mxPoint x="370" y="330" as="targetPoint" />
          </mxGeometry>
        </mxCell>
        <mxCell id="w30AFk53KffUqU6aEnDT-29" value="" style="curved=1;endArrow=classic;html=1;rounded=0;dashed=1;edgeStyle=orthogonalEdgeStyle;" edge="1" parent="1">
          <mxGeometry width="50" height="50" relative="1" as="geometry">
            <mxPoint x="280" y="310" as="sourcePoint" />
            <mxPoint x="300" y="310" as="targetPoint" />
            <Array as="points">
              <mxPoint x="260" y="310" />
              <mxPoint x="260" y="250" />
              <mxPoint x="320" y="250" />
              <mxPoint x="320" y="310" />
            </Array>
          </mxGeometry>
        </mxCell>
        <mxCell id="w30AFk53KffUqU6aEnDT-30" value="2. 检验、开门" style="text;html=1;align=center;verticalAlign=middle;whiteSpace=wrap;rounded=0;" vertex="1" parent="1">
          <mxGeometry x="250" y="220" width="80" height="30" as="geometry" />
        </mxCell>
        <mxCell id="w30AFk53KffUqU6aEnDT-32" value="" style="sketch=0;aspect=fixed;pointerEvents=1;shadow=0;dashed=0;html=1;strokeColor=none;labelPosition=center;verticalLabelPosition=bottom;verticalAlign=top;align=center;fillColor=#3399FF;shape=mxgraph.azure.laptop" vertex="1" parent="1">
          <mxGeometry x="510" y="180" width="116.67" height="70" as="geometry" />
        </mxCell>
        <mxCell id="w30AFk53KffUqU6aEnDT-33" value="" style="rounded=1;whiteSpace=wrap;html=1;strokeColor=#99CCFF;strokeWidth=2;" vertex="1" parent="1">
          <mxGeometry x="840" y="35" width="120" height="360" as="geometry" />
        </mxCell>
        <mxCell id="w30AFk53KffUqU6aEnDT-34" value="" style="sketch=0;pointerEvents=1;shadow=0;dashed=0;html=1;strokeColor=none;fillColor=#99CCFF;aspect=fixed;labelPosition=center;verticalLabelPosition=bottom;verticalAlign=top;align=center;outlineConnect=0;shape=mxgraph.vvd.ethernet_port;" vertex="1" parent="1">
          <mxGeometry x="875" y="85" width="50" height="50" as="geometry" />
        </mxCell>
        <mxCell id="w30AFk53KffUqU6aEnDT-35" value="" style="sketch=0;pointerEvents=1;shadow=0;dashed=0;html=1;strokeColor=none;fillColor=#99CCFF;aspect=fixed;labelPosition=center;verticalLabelPosition=bottom;verticalAlign=top;align=center;outlineConnect=0;shape=mxgraph.vvd.ethernet_port;" vertex="1" parent="1">
          <mxGeometry x="875" y="305" width="50" height="50" as="geometry" />
        </mxCell>
        <mxCell id="w30AFk53KffUqU6aEnDT-36" value="UDP端口" style="text;html=1;align=center;verticalAlign=middle;whiteSpace=wrap;rounded=0;fontStyle=1;fontSize=15;" vertex="1" parent="1">
          <mxGeometry x="865" y="45" width="70" height="30" as="geometry" />
        </mxCell>
        <mxCell id="w30AFk53KffUqU6aEnDT-38" value="UDP端口" style="text;html=1;align=center;verticalAlign=middle;whiteSpace=wrap;rounded=0;fontStyle=1;fontSize=15;" vertex="1" parent="1">
          <mxGeometry x="865" y="360" width="70" height="30" as="geometry" />
        </mxCell>
        <mxCell id="w30AFk53KffUqU6aEnDT-39" value="" style="sketch=0;aspect=fixed;pointerEvents=1;shadow=0;dashed=0;html=1;strokeColor=none;labelPosition=center;verticalLabelPosition=bottom;verticalAlign=top;align=center;fillColor=#3399FF;shape=mxgraph.mscae.enterprise.ad_fs" vertex="1" parent="1">
          <mxGeometry x="865" y="175" width="80" height="100" as="geometry" />
        </mxCell>
        <mxCell id="w30AFk53KffUqU6aEnDT-40" value="" style="html=1;shadow=0;dashed=0;align=center;verticalAlign=middle;shape=mxgraph.arrows2.arrow;dy=0.6;dx=40;notch=0;rotation=-30;fillColor=#999999;strokeColor=#999999;" vertex="1" parent="1">
          <mxGeometry x="619.08" y="131.67" width="223.33" height="30" as="geometry" />
        </mxCell>
        <mxCell id="w30AFk53KffUqU6aEnDT-42" value="1、SPA端口敲门：发送带身份认证信息的UDP包" style="text;html=1;align=center;verticalAlign=middle;whiteSpace=wrap;rounded=0;fontStyle=1;fontSize=15;rotation=-30;" vertex="1" parent="1">
          <mxGeometry x="610" y="105" width="180" height="30" as="geometry" />
        </mxCell>
        <mxCell id="w30AFk53KffUqU6aEnDT-43" value="" style="html=1;shadow=0;dashed=0;align=center;verticalAlign=middle;shape=mxgraph.arrows2.arrow;dy=0.6;dx=40;notch=0;rotation=30;fillColor=#3399FF;strokeColor=#3399FF;" vertex="1" parent="1">
          <mxGeometry x="619.08" y="260" width="223.33" height="30" as="geometry" />
        </mxCell>
        <mxCell id="w30AFk53KffUqU6aEnDT-44" value="4、UDP建立安全传输" style="text;html=1;align=center;verticalAlign=middle;whiteSpace=wrap;rounded=0;fontStyle=1;fontSize=15;rotation=30;" vertex="1" parent="1">
          <mxGeometry x="619.0799999999999" y="290" width="180" height="30" as="geometry" />
        </mxCell>
        <mxCell id="w30AFk53KffUqU6aEnDT-45" value="2、通过SPA敲门包，验证用户身份信息" style="text;html=1;align=center;verticalAlign=middle;whiteSpace=wrap;rounded=0;fontStyle=1;fontSize=15;rotation=0;" vertex="1" parent="1">
          <mxGeometry x="970" y="85" width="170" height="30" as="geometry" />
        </mxCell>
        <mxCell id="w30AFk53KffUqU6aEnDT-46" value="3、对合法用户的IP暂时放行端口" style="text;html=1;align=center;verticalAlign=middle;whiteSpace=wrap;rounded=0;fontStyle=1;fontSize=15;rotation=0;" vertex="1" parent="1">
          <mxGeometry x="970" y="290" width="170" height="30" as="geometry" />
        </mxCell>
        <mxCell id="w30AFk53KffUqU6aEnDT-49" value="" style="shape=image;html=1;verticalAlign=top;verticalLabelPosition=bottom;labelBackgroundColor=#ffffff;imageAspect=0;aspect=fixed;image=https://cdn0.iconfinder.com/data/icons/kameleon-free-pack/110/Hacker-128.png" vertex="1" parent="1">
          <mxGeometry x="56.34" y="70" width="87.33" height="87.33" as="geometry" />
        </mxCell>
        <mxCell id="w30AFk53KffUqU6aEnDT-52" value="" style="shape=mxgraph.arrows.u_turn_left_arrow;html=1;verticalLabelPosition=bottom;verticalAlign=top;strokeWidth=2;strokeColor=#999999;fillColor=#999999;" vertex="1" parent="1">
          <mxGeometry x="980" y="160" width="40" height="90" as="geometry" />
        </mxCell>
      </root>
    </mxGraphModel>
  </diagram>
</mxfile>
